<svg xmlns="http://www.w3.org/2000/svg" viewBox="0 0 493.29 156.62"><defs><style>.cls-1{fill:#fff;}</style></defs><g id="Camada_2" data-name="Camada 2"><g id="Camada_1-2" data-name="Camada 1"><path class="cls-1" d="M17.42,67.53c-.09,1.91-.22,3.54-.22,5.17q0,36.12,0,72.24c0,3.49-.06,6.75,4.44,7.64.56.11,1.3,1.52,1.2,2.22A2.58,2.58,0,0,1,21,156.51q-9.48.21-19,0c-.72,0-2-1.08-2-1.54.1-.91.82-2.33,1.54-2.5,3.88-.92,4.1-3.64,4.1-6.87q-.09-35.88,0-71.74c0-3.28.16-6.44-4.18-7.26C.83,66.5-.17,64.9,0,64.54A3.45,3.45,0,0,1,2.36,62.8c9.14,0,18.31-.28,27.43.3,6.82.44,12,4.78,12.88,11.36a89.06,89.06,0,0,1,.12,24.62c-1.28,8.55-10.65,13.58-19.64,12-.93-.16-1.66-1.47-2.48-2.25.75-.68,1.41-1.79,2.28-2,8.22-2,9-2.81,9-11.22q.07-8,0-15.94C31.93,68,29.65,66,17.42,67.53Z"/><path class="cls-1" d="M273.84,99.43c0,6.63.34,13.28-.07,19.88-.74,11.71-7.47,17.82-19,17.86s-19-6.17-19.48-17.49c-.63-13.72-.69-27.51-.08-41.23.51-11.61,8.07-17.79,19.78-17.7,11,.08,18.17,6.86,18.81,18.31.38,6.77.07,13.58.07,20.37Zm-11.34-.5h0c0-8,.06-15.94,0-23.9-.06-5.91-3.15-9.68-7.75-9.75s-7.84,3.66-7.88,9.62q-.13,24.16,0,48.32c0,6.16,3.1,9.54,7.94,9.41,4.65-.13,7.56-3.74,7.63-9.79C262.57,114.87,262.5,106.9,262.5,98.93Z"/><path class="cls-1" d="M220.83,110.21c0-11.22.11-22.44-.14-33.64,0-1.27-2.09-2.47-3.17-3.74-.76-.89-1.44-1.83-2.16-2.76.93-.48,1.84-1.35,2.78-1.39,3.65-.17,7.32-.17,11,0,.91,0,1.78,1,2.67,1.53-.6.85-1.08,2.3-1.83,2.45-4.16.86-3.87,4-3.87,7q0,28.37,0,56.75v4.84c-3.69,1.71-5.48.52-6.87-2.67-7.05-16.11-14.24-32.15-21.38-48.22a24.52,24.52,0,0,0-3.59-6.23c-.1,1.15-.28,2.3-.28,3.45-.06,14.43-.08,28.87-.14,43.3,0,3.25-.2,6.47,4.24,7.17.6.1,1.57,1.7,1.37,2.14a3.42,3.42,0,0,1-2.32,1.82c-4,.2-8,.2-12,0-.82,0-1.58-1.2-2.37-1.84.66-.79,1.2-2.12,2-2.3,3.47-.76,3.78-3.15,3.77-6q-.08-26.88,0-53.76c0-3.06-.26-5.62-4-6.32-.69-.12-1.37-1.62-1.52-2.57-.06-.36,1.36-1.36,2.13-1.39a94.18,94.18,0,0,1,13.44,0c1.4.15,3,2.28,3.77,3.87,5.9,12.79,11.61,25.68,17.38,38.53Z"/><path class="cls-1" d="M340.73,73.55q0,23.4,0,46.81c0,3.41-.28,6.83,4.41,7.58.56.09,1.35,1.48,1.26,2.17a2.58,2.58,0,0,1-1.83,1.71q-6.22.26-12.46.06c-.75,0-2.1-1-2.05-1.5.08-.91.82-2.37,1.5-2.5,4.1-.79,4-3.71,4-6.84q-.09-26.4-.05-52.79c0-3.2-.1-6-4.13-6.76a2.56,2.56,0,0,1-1.35-2.14A2.59,2.59,0,0,1,332,57.68a154,154,0,0,1,15.94.13c1.05.08,2.36,2.47,2.79,4,4.4,15.82,8.65,31.68,13.25,48.67,2.77-10.58,5.27-20.11,7.76-29.63.34-1.29.38-2.76,1.07-3.81.57-.85,1.9-1.2,2.9-1.78.55,1,1.76,2.15,1.56,3q-6.37,25.59-13.11,51.1c-.28,1-2.12,2.54-3,2.38a4.88,4.88,0,0,1-3.28-2.76c-3.08-9.81-5.91-19.71-8.8-29.58q-3.81-13.07-7.59-26.15Z"/><path class="cls-1" d="M170.72,135.3c-3,0-6,.1-9-.07-.76,0-2.12-1.06-2.06-1.43.16-.94.86-2.41,1.55-2.54,6.75-1.24,2.9-5.7,2.86-9,0-4.13-2.69-4.76-6.05-4.44-.83.08-1.67,0-2.5,0-7.31,0-9.25,1.88-8.75,9.29.09,1.33,1.91,2.56,3,3.79.78.89,1.66,1.71,2.49,2.56-1.15.61-2.27,1.65-3.47,1.76a59.68,59.68,0,0,1-9,.06c-.94-.06-2.37-.84-2.58-1.57s.64-2,1.15-2.9c1.15-2.08,3-4,3.48-6.16,4.66-20.23,9-40.51,13.7-60.73.38-1.65,2.3-2.93,3.51-4.39,1.18,1.49,3.06,2.81,3.46,4.48,4.79,20.36,9.29,40.8,14.14,61.15.51,2.17,2.75,3.93,4.18,5.89l1.85,2.52c-1,.6-2,1.64-3,1.72-3,.24-6,.09-9,.09Zm-8.66-22.57c-1.95-9.34-3.78-18.16-5.62-27h-.85c-1.93,8.9-3.86,17.79-5.86,27Z"/><path class="cls-1" d="M471.22,67.73c-1.21,2-1.7,3.86-2.51,4-4.18.79-4,3.76-4,6.84,0,20.57.12,41.15-.08,61.72,0,4,1.31,5.16,5.11,5.08,8.81-.19,12.89-1.17,14-10.33.11-.9,1.53-1.64,2.34-2.45.61,1,1.69,2,1.73,3,.19,4.64.1,9.29.07,13.93,0,3.42-1.42,3.95-4.42,2.4a16.7,16.7,0,0,0-6.83-2.06c-8.47-.25-17-.05-25.43-.22-1.34,0-2.65-1.15-4-1.77a23.06,23.06,0,0,0,2.81-2.68c1.09-1.46,2.78-3.08,2.79-4.65q.28-31.85,0-63.7c0-1.66-2.33-3.3-3.6-4.94-.63-.82-1.31-1.6-2-2.4.8-.61,1.59-1.72,2.4-1.73C456.43,67.67,463.21,67.73,471.22,67.73Z"/><path class="cls-1" d="M434,133.64c-3,0-6,.1-9-.07-.77,0-1.5-.94-2.24-1.44.57-.84,1-2.3,1.73-2.41,4.39-.71,4-3.5,3.36-6.69-3.4-16.38-7-32.73-9.92-49.22-.78-4.47.71-9.38,1.48-14,.12-.76,2.19-2,2.9-1.7A5.27,5.27,0,0,1,425.45,61c2.8,11.43,5.38,22.91,8,34.39,2.17,9.53,4.13,19.12,6.55,28.59.53,2.05,2.64,3.71,4.05,5.53.62.81,1.3,1.56,2,2.34-1,.6-2,1.64-3,1.73-3,.23-6,.08-9,.08Z"/><path class="cls-1" d="M386.68,124.08c-2.82,0-5.66.16-8.46-.09-1-.09-1.94-1.16-2.91-1.79.63-.81,1.14-2.17,1.91-2.34,3.78-.84,3.82-3.54,3.81-6.51,0-12.93-.8-25.93.27-38.78.65-7.85,3.67-15.67,6.76-23,.63-1.51,6.33-.89,9.7-1.26-.4,1.16-.65,3.24-1.23,3.34-4.24.71-4,3.7-4,6.78q.06,26.37,0,52.73c0,3.14-.09,6,4,6.79.7.13,1.14,1.65,1.69,2.53-.87.55-1.72,1.5-2.63,1.56C392.67,124.21,389.67,124.09,386.68,124.08Z"/><path class="cls-1" d="M314.19,107.64c6.88,5.07,8,12.2,8.19,19.69.11,4.38,1,8.24,5.95,9.79.88.27,1.39,1.76,2.07,2.68-.94.47-1.85,1.28-2.82,1.34-7.87.54-14.45-4.11-16.26-11.76a54,54,0,0,1-1-9.86c-.23-5-1.45-9.18-7.31-10.26-.81-.15-1.42-1.38-2.13-2.11.89-.73,1.73-2,2.66-2.08,5-.37,7.12-3.63,7.4-7.9a154.57,154.57,0,0,0,0-18.39c-.1-2-1.74-3.82-2.42-5.81a32.39,32.39,0,0,1-.91-4.73c1.5,0,3.55-.74,4.42,0,3.2,2.67,7.48,5.29,8.7,8.85C324.44,87.88,324.64,98.66,314.19,107.64Z"/><path class="cls-1" d="M121.21,101.76c6.74,5.06,8.08,12,8,19.64,0,3.95.9,7.53,5,9.57.93.46,1.22,2.22,1.89,3.55-9.89,1.65-17.08-3.75-18.5-13.43-.38-2.62-.18-5.31-.4-8-.4-4.71-1.43-9-7.29-9.72-.8-.1-1.46-1.37-2.18-2.1.85-.77,1.66-2.16,2.56-2.22,5.34-.32,7.32-3.76,7.47-8.28A138.48,138.48,0,0,0,117.39,71c-.4-3.65,1.88-4.56,3.9-5.27,1.22-.43,3.73.68,4.66,1.88C132.73,76.37,130.62,92.6,121.21,101.76Z"/><path class="cls-1" d="M297.44,10.75c0,7.53-.28,15.09.22,22.59.11,1.73,2.9,3.28,4.84,5.32H287.3c8.11-3.48,6.66-9.74,7.27-15.16.47-4.12.67-8.28.83-12.43.15-3.75,1.32-8.12-5.68-8.31C296.64-.83,300.67.42,303.32,6c3.43,7.19,6.88,14.36,10.76,22.47,1.14-1.92,2-3.16,2.65-4.5q4.14-8.5,8.17-17.07c3.1-6.63,5.69-7.65,14-4.69-6.17,1.18-5.71,5.29-5.51,9.46.28,5.8.27,11.62.41,17.43.09,3.86-.38,8.07,6.18,8.19l-1,1.26H323.57c5.08-2.14,4.09-6.51,4.08-10.49a110.21,110.21,0,0,0-1-18.17q-6.72,14.22-13.42,28.43l-1.45.33q-6.3-14-12.62-28Z"/><path class="cls-1" d="M103.73,78.12v25.65c0,7.13,0,14.25,0,21.37,0,2.8.15,5.3,3.67,6.06.8.18,1.35,1.53,2,2.34-1,.61-2,1.71-3,1.74-5.63.18-11.28.2-16.92,0-1.17,0-2.3-1.18-3.45-1.81.82-.86,1.51-2.2,2.5-2.48,3.25-.91,3.24-3.31,3.24-5.87,0-10.11.82-20.3-.2-30.3C90.58,85.55,95.66,81.87,103.73,78.12Z"/><path class="cls-1" d="M64.2,118.66c-1.17-9.6-1.06-9.8,8.41-15,1.84,7.82,3.63,15.45,5.44,23.08.49,2.1.67,4.37,1.62,6.24.79,1.57,2.53,2.63,3.76,4a27.11,27.11,0,0,1,1.81,2.54c-.86.57-1.7,1.63-2.57,1.65-6.16.14-12.32.12-18.47,0a3,3,0,0,1-2.11-1.53c-.25-.47.31-2,.7-2.07,8.32-1.69,3.46-7.26,3.39-11.37a7.35,7.35,0,0,0-.8-2.15H51.1c-.64,2.75-1.8,5.61-1.75,8.44,0,1.51,2.16,3,3.32,4.47.71.91,1.39,1.86,2.08,2.79-.92.49-1.83,1.38-2.77,1.42-3.82.17-7.66.19-11.48,0-.87,0-1.7-1.08-2.55-1.66.62-.84,1.23-1.7,1.87-2.53,1.49-1.93,3.78-3.63,4.38-5.8,2.94-10.62,4.24-11.82,15.33-12.15C61,119,62.46,118.81,64.2,118.66Z"/><path class="cls-1" d="M305.9,62.6c-1.2,3.27-1.2,3.27-11.63,5,2.75,19.59-2,38.09-11,57-.17-2.67-.34-4.28-.35-5.89-.06-14.76-.08-29.51-.14-44.26,0-3.43.66-7.22-4.33-8.13-.53-.09-1.24-1.65-1.07-2.32a2.75,2.75,0,0,1,2.15-1.39C288.07,62.56,296.66,62.6,305.9,62.6Z"/><path class="cls-1" d="M62.07,105.39c-1.41-6.31-2.66-11.89-4-18.09-5,10.17-2.28,22.53-10.85,30.54l-1.34-.4c1.52-7.34,3-14.69,4.58-22C52.63,85.21,54.84,75,57.28,64.85c.34-1.39,2-2.47,3-3.69,1.21,1.24,3.13,2.29,3.5,3.74,2.53,10,4.87,20,6.91,30,.32,1.62-.75,4-1.94,5.32C67.11,102.17,64.71,103.44,62.07,105.39Z"/><path class="cls-1" d="M213.17,38.33c6-1.33,5.47-5.59,5.39-9.78-.11-6.12-.21-12.26.05-18.37.16-3.84-.38-6.87-5.06-7.67.57-.7.85-1.34,1.13-1.33,8.27.09,16.62-.43,24.78.58,8.74,1.08,13.66,6.89,14.39,14.72.84,9-3.26,16.39-11.06,19.8C233.33,40.41,223.41,39.08,213.17,38.33Zm11.56-19.25h0c0,3.81.09,7.63,0,11.44-.13,4.32,2.13,5.91,6.15,5.9,6.33,0,11.51-2.27,14.26-8.15,3-6.39,3.07-13-1.15-18.92-3.89-5.43-9.86-6.53-16-5.66-1.23.17-2.88,2.49-3.05,4A98.76,98.76,0,0,0,224.73,19.08Z"/><path class="cls-1" d="M176.53.59c7.32.36,14.81-.11,21.91,1.33,7.54,1.52,9.2,10.79,3.53,16.13-1.07,1-2.33,1.83-4.25,3.32l13,17.2c-3,1.69-7.05.9-10.3-3-2.41-2.93-4.1-6.45-6.53-9.36-1.35-1.62-3.54-2.53-5.72-4-2.49,9.61-1.65,12.6,4.7,16.45H176.3c6.46-2.58,4.45-8.15,4.56-12.88.13-5.31-.08-10.62.07-15.92.11-3.58-.19-6.69-5-7.25ZM187,20.26c2.68-.29,4.7-.2,6.51-.77,4.19-1.32,5.93-5.06,5-10-.76-4.11-3.65-5.65-7.43-6C188.49,3.19,187,4.18,187,7,187,11.14,187,15.25,187,20.26Z"/><path class="cls-1" d="M174.8,19.54c.08,11.58-9.1,20.56-21,20.57-11.6,0-20.45-8.59-20.43-19.85C133.4,8.82,142.26.16,154.08,0,165.72-.15,174.73,8.35,174.8,19.54Zm-6.46.87c-1.33-3.77-2.13-8.33-4.41-12-5.17-8.3-16.68-7.67-21.38.76-3.88,7-2.37,18.59,3.15,24.24,6.21,6.36,16.2,4.85,19.9-3.2C166.88,27.44,167.3,24.26,168.34,20.41Z"/><path class="cls-1" d="M282.64,1.52V9.7l-.95,1.3c-2-9.06-8.31-7.71-15.18-7.28,0,4-.11,8.09.11,12.13a3,3,0,0,0,2.24,1.89,39.62,39.62,0,0,0,8-1.45c.79-.23,1.21-1.69,2.6-3.81v13.6c-3.22-5.93-7.58-5.84-13-4.5a115,115,0,0,0,.15,11.57c.12,1.13,1.89,2.69,3.17,3,6.4,1.63,10.13-.05,13.68-5.64a5.64,5.64,0,0,1,1.08-1c2.29,5.93.06,9.56-5.8,9.58-6.49,0-13,0-19.47,0-1.51,0-3-.2-5.56-.37,6.44-3.94,6.44-3.94,6.43-11.11,0-5.81-.15-11.63,0-17.43.13-3.75-.25-6.92-4.56-8.73Z"/><path class="cls-1" d="M414.74,76.3c5.29,13.38-2.75,24.3-2.86,36,2.35,2.29,8.28-1.88,9.16,4.8-1.66.21-3,.67-4.17.47-5.56-.95-7.76,1.59-8.19,6.9-.24,3-.74,5.59,3.22,6.53.86.2,1.41,1.76,2.1,2.7-.93.48-1.84,1.34-2.79,1.38a102.93,102.93,0,0,1-11,0c-1-.06-2-1.14-3-1.75.64-.82,1.29-1.64,1.91-2.48,1.46-2,3.7-3.78,4.23-6,3.47-14.35,6.57-28.79,9.81-43.2C413.54,80.3,414,78.91,414.74,76.3Z"/><path class="cls-1" d="M296.61,103.63c0,8.92,0,17.83,0,26.75,0,3.13,0,6,4.09,6.8.68.12,1.36,1.64,1.49,2.6.06.38-1.35,1.38-2.11,1.4-6.15.12-12.31.15-18.45,0-.82,0-1.61-1.16-2.41-1.78.65-.81,1.28-1.64,2-2.42,1.3-1.5,3.21-2.76,3.86-4.5,3.56-9.61,6.82-19.33,10.18-29Z"/><path class="cls-1" d="M119.29,62.65c-2.52.3-5.07,1-7.54.8-6.7-.61-7-.18-8.3,6.39-.46,2.26-3.17,4.21-5.14,6C96.78,77.2,94.8,78.09,91.77,80c0-4.4-.06-7.61,0-10.82.06-2.9-.44-5.26-3.85-6a2.68,2.68,0,0,1-1.74-1.89c0-.69,1-2,1.52-2.05,10.49-.25,21-1.08,31.4.88C119.17,61,119.23,61.8,119.29,62.65Z"/><path class="cls-1" d="M391.08,150.17c-2.58-.6-4.83-.75-6.69-1.66s-3.45-2.63-5.14-4c1.31-1.39,2.41-3.55,4-4a11.84,11.84,0,0,1,6.71.58c1.35.49,2.4,2.22,3.25,3.6.71,1.14,1.57,2.85,1.17,3.81S392.06,149.73,391.08,150.17Z"/><path class="cls-1" d="M366.57,51.64c2.4-1.83,4.15-4.2,5.5-4,2.54.4,4.86,2.28,7.27,3.54l-6.82,7.73Z"/><path class="cls-1" d="M38.6,53c4-1.11,6.91-1.94,9.84-2.74.31-.08.81-.17,1,0,.61.66,1.71,1.6,1.55,2.09a77.23,77.23,0,0,1-3.54,9,3.89,3.89,0,0,1-2.89-.55C42.6,58.68,41,56.25,38.6,53Z"/><path class="cls-1" d="M110.92,147.94c4.17-7.8,8.78-8.76,13.34-3.85,1.69,1.82,1.57,3.54-1.06,3.77C119.41,148.19,115.57,147.94,110.92,147.94Z"/><path class="cls-1" d="M33.89,128c-1.89,1.54-3.61,3.49-5.76,4.41-.72.31-2.93-1.77-3.8-3.17-1.34-2.17-1.18-4.29,2.23-4,2.2.15,4.38.68,6.57,1Z"/><path class="cls-1" d="M99,51.43l-8.1-1.77,2.19-5.57,7.13,4.4C99.85,49.47,99.44,50.45,99,51.43Z"/><path class="cls-1" d="M410.08,66.88c-2.51,2-4.13,4.19-5.05,3.93-1.9-.55-3.43-2.39-5.11-3.69,1.65-1.07,3.19-2.6,5-3C406,63.86,407.45,65.39,410.08,66.88Z"/><path class="cls-1" d="M317.39,55.81c1.81,1.91,4,3.22,3.93,4.39s-2.2,2.51-3.44,3.76A31.19,31.19,0,0,1,314,59.34C313.83,59,315.77,57.46,317.39,55.81Z"/><path class="cls-1" d="M204.67,56.85l5.63,4.41c-1.33,1-3.13,3.2-3.92,2.89-1.93-.78-3.41-2.71-5.06-4.17Z"/><path class="cls-1" d="M444.68,49.52c-1.58,1.14-3.06,2.93-4.76,3.17-.95.13-2.48-2.21-3.3-3.69-.3-.55.79-2.66,1.06-2.62a61.47,61.47,0,0,1,6.65,1.41C444.45,48.36,444.56,48.94,444.68,49.52Z"/><path class="cls-1" d="M486.24,73.51c2.69-3.43,4.86-4.46,6.85-1.66.61.86-.35,2.85-.6,4.32Z"/><path class="cls-1" d="M394.41,32.69c1.51,2,3.15,3.33,2.91,4-.55,1.46-2,2.58-3.12,3.83-.91-1-2.62-2-2.54-2.84C391.79,36.23,393.08,34.92,394.41,32.69Z"/><path class="cls-1" d="M462,56.85c2.45-1.52,3.76-2.74,5.29-3.12.75-.18,1.88,1.21,2.84,1.88-1.14,1.2-2.11,2.84-3.51,3.44C465.82,59.38,464.29,58,462,56.85Z"/><path class="cls-1" d="M19.25,50.46l5.45,2.36L23,55.8l-5-3.18Z"/></g></g></svg>